<?xml version="1.0" encoding="UTF-8"?>
<svg width="16px" height="16px" viewBox="0 0 16 16" version="1.1" xmlns="http://www.w3.org/2000/svg" xmlns:xlink="http://www.w3.org/1999/xlink">
    <!-- Generator: Sketch 61.2 (89653) - https://sketch.com -->
    <title>cross</title>
    <desc>Created with Sketch.</desc>
    <defs>
        <path d="M8,6.93933983 L3.28033009,2.21966991 C2.98743687,1.9267767 2.51256313,1.9267767 2.21966991,2.21966991 C1.9267767,2.51256313 1.9267767,2.98743687 2.21966991,3.28033009 L6.93933983,8 L2.21966991,12.7196699 C1.9267767,13.0125631 1.9267767,13.4874369 2.21966991,13.7803301 C2.51256313,14.0732233 2.98743687,14.0732233 3.28033009,13.7803301 L8,9.06066017 L12.7196699,13.7803301 C13.0125631,14.0732233 13.4874369,14.0732233 13.7803301,13.7803301 C14.0732233,13.4874369 14.0732233,13.0125631 13.7803301,12.7196699 L9.06066017,8 L13.7803301,3.28033009 C14.0732233,2.98743687 14.0732233,2.51256313 13.7803301,2.21966991 C13.4874369,1.9267767 13.0125631,1.9267767 12.7196699,2.21966991 L8,6.93933983 Z" id="path-1"></path>
    </defs>
    <g id="cross" stroke="none" stroke-width="1" fill="none" fill-rule="evenodd">
        <mask id="mask-2" fill="white">
            <use xlink:href="#path-1"></use>
        </mask>
        <use id="Icon" fill="#FFFFFF" fill-rule="nonzero" xlink:href="#path-1"></use>
    </g>
</svg>