<?xml version="1.0" encoding="UTF-8"?>
<svg width="14px" height="14px" viewBox="0 0 14 14" version="1.1" xmlns="http://www.w3.org/2000/svg" xmlns:xlink="http://www.w3.org/1999/xlink">
    <!-- Generator: Sketch 63 (92445) - https://sketch.com -->
    <title>lock</title>
    <desc>Created with Sketch.</desc>
    <g id="lock" stroke="none" stroke-width="1" fill="none" fill-rule="evenodd">
        <path d="M10,5.07142857 C10.4142136,5.07142857 10.7892136,5.23932179 11.0606602,5.5107684 C11.3321068,5.78221501 11.5,6.15721501 11.5,6.57142857 L11.5,6.57142857 L11.5,11 C11.5,11.4142136 11.3321068,11.7892136 11.0606602,12.0606602 C10.7892136,12.3321068 10.4142136,12.5 10,12.5 L10,12.5 L4.00000002,12.5 C3.58578646,12.5 3.21078646,12.3321068 2.93933985,12.0606602 C2.66789324,11.7892136 2.50000002,11.4142136 2.50000002,11 L2.50000002,11 L2.50000002,6.57142857 C2.50000002,6.15721501 2.66789324,5.78221501 2.93933985,5.5107684 C3.21078646,5.23932179 3.58578646,5.07142857 4.00000002,5.07142857 L4.00000002,5.07142857 Z M6.64644661,7.64644661 C6.55596441,7.73692881 6.5,7.86192881 6.5,8 C6.5,8.24424398 6.69819432,8.42567624 6.99861311,8.58780797 L6.99950911,9.5 L7.00005711,9.5 L7.00017127,8.50042747 C7.27585685,8.49996485 7.5,8.27626302 7.5,8 C7.5,7.86192881 7.4440356,7.73692881 7.35355339,7.64644661 C7.26307119,7.55596441 7.13807119,7.5 6.64644661,7.64644661 Z M7.00048921,1 C6.07748554,1 5.42536203,1.34327561 5.01172248,1.97658142 C4.59211719,2.61902111 4.42277162,3.61715625 4.58562305,5 L9.47822723,5 C9.61720445,3.61427445 9.43122886,2.61444055 8.99943425,1.97129654 C8.57575952,1.34024683 7.91926312,1 7.00048921,1 Z" id="Combined-Shape" stroke="#000000"></path>
    </g>
</svg>