<?xml version="1.0" encoding="UTF-8"?>
<svg width="18px" height="11px" viewBox="0 0 18 11" version="1.1" xmlns="http://www.w3.org/2000/svg" xmlns:xlink="http://www.w3.org/1999/xlink">
    <title>Group</title>
    <g id="Assets" stroke="none" stroke-width="1" fill="none" fill-rule="evenodd">
        <g id="Artboard" transform="translate(-59.000000, -63.000000)" fill="#FFFFFF" fill-rule="nonzero">
            <g id="Group" transform="translate(59.000000, 63.000000)">
                <path d="M5.738,10.089 L5.738,9.69 C5.14266667,9.69 4.69616667,9.58233333 4.3985,9.367 C4.10083333,9.15166667 3.952,8.74 3.952,8.132 L3.952,8.132 L3.952,3.097 C3.952,2.755 4.028,2.40666667 4.18,2.052 C4.332,1.69733333 4.53783333,1.39016667 4.7975,1.1305 C5.05716667,0.870833333 5.35166667,0.715666667 5.681,0.665 C5.85833333,0.601666667 6.03566667,0.595333333 6.213,0.646 C5.97233333,0.810666667 5.77283333,1.01016667 5.6145,1.2445 C5.45616667,1.47883333 5.377,1.77333333 5.377,2.128 C5.377,2.49533333 5.5005,2.78983333 5.7475,3.0115 C5.9945,3.23316667 6.33966667,3.344 6.783,3.344 C7.22633333,3.344 7.58416667,3.19516667 7.8565,2.8975 C8.12883333,2.59983333 8.265,2.21666667 8.265,1.748 C8.265,1.45666667 8.20483333,1.178 8.0845,0.912 C7.96416667,0.646 7.77733333,0.4275 7.524,0.2565 C7.27066667,0.0855 6.94133333,0 6.536,0 C6.13066667,0 5.76333333,0.0791666667 5.434,0.2375 C5.10466667,0.395833333 4.81333333,0.614333333 4.56,0.893 C4.30666667,1.17166667 4.104,1.482 3.952,1.824 L3.952,1.824 L3.952,0.057 C3.55933333,0.145666667 3.13183333,0.212166667 2.6695,0.2565 C2.20716667,0.300833333 1.71,0.323 1.178,0.323 C0.798,0.323 0.405333333,0.304 -7.10542736e-15,0.266 L-7.10542736e-15,0.266 L-7.10542736e-15,0.665 C0.468666667,0.665 0.7885,0.801166667 0.9595,1.0735 C1.1305,1.34583333 1.216,1.767 1.216,2.337 L1.216,2.337 L1.216,8.322 C1.216,8.854 1.12416667,9.215 0.9405,9.405 C0.756833333,9.595 0.443333333,9.69 -7.10542736e-15,9.69 L-7.10542736e-15,9.69 L-7.10542736e-15,10.089 C0.266,10.0763333 0.658666667,10.0605 1.178,10.0415 C1.69733333,10.0225 2.21033333,10.013 2.717,10.013 C3.325,10.013 3.90766667,10.0225 4.465,10.0415 C5.02233333,10.0605 5.44666667,10.0763333 5.738,10.089 L5.738,10.089 Z" id="r"></path>
                <path d="M14.738,10.089 L14.738,9.69 C14.1426667,9.69 13.6961667,9.58233333 13.3985,9.367 C13.1008333,9.15166667 12.952,8.74 12.952,8.132 L12.952,8.132 L12.952,3.097 C12.952,2.755 13.028,2.40666667 13.18,2.052 C13.332,1.69733333 13.5378333,1.39016667 13.7975,1.1305 C14.0571667,0.870833333 14.3516667,0.715666667 14.681,0.665 C14.8583333,0.601666667 15.0356667,0.595333333 15.213,0.646 C14.9723333,0.810666667 14.7728333,1.01016667 14.6145,1.2445 C14.4561667,1.47883333 14.377,1.77333333 14.377,2.128 C14.377,2.49533333 14.5005,2.78983333 14.7475,3.0115 C14.9945,3.23316667 15.3396667,3.344 15.783,3.344 C16.2263333,3.344 16.5841667,3.19516667 16.8565,2.8975 C17.1288333,2.59983333 17.265,2.21666667 17.265,1.748 C17.265,1.45666667 17.2048333,1.178 17.0845,0.912 C16.9641667,0.646 16.7773333,0.4275 16.524,0.2565 C16.2706667,0.0855 15.9413333,0 15.536,0 C15.1306667,0 14.7633333,0.0791666667 14.434,0.2375 C14.1046667,0.395833333 13.8133333,0.614333333 13.56,0.893 C13.3066667,1.17166667 13.104,1.482 12.952,1.824 L12.952,1.824 L12.952,0.057 C12.5593333,0.145666667 12.1318333,0.212166667 11.6695,0.2565 C11.2071667,0.300833333 10.71,0.323 10.178,0.323 C9.798,0.323 9.40533333,0.304 9,0.266 L9,0.266 L9,0.665 C9.46866667,0.665 9.7885,0.801166667 9.9595,1.0735 C10.1305,1.34583333 10.216,1.767 10.216,2.337 L10.216,2.337 L10.216,8.322 C10.216,8.854 10.1241667,9.215 9.9405,9.405 C9.75683333,9.595 9.44333333,9.69 9,9.69 L9,9.69 L9,10.089 C9.266,10.0763333 9.65866667,10.0605 10.178,10.0415 C10.6973333,10.0225 11.2103333,10.013 11.717,10.013 C12.325,10.013 12.9076667,10.0225 13.465,10.0415 C14.0223333,10.0605 14.4466667,10.0763333 14.738,10.089 L14.738,10.089 Z" id="r" transform="translate(13.132500, 5.044500) scale(1, -1) translate(-13.132500, -5.044500) "></path>
            </g>
        </g>
    </g>
</svg>