<?xml version="1.0" encoding="UTF-8"?>
<svg width="11px" height="12px" viewBox="0 0 11 12" version="1.1" xmlns="http://www.w3.org/2000/svg" xmlns:xlink="http://www.w3.org/1999/xlink">
    <title>R</title>
    <g id="Page-1" stroke="none" stroke-width="1" fill="none" fill-rule="evenodd">
        <path d="M3.80991468,11.2428241 L3.80991468,8.42682412 L4.83391468,8.42682412 L6.73791468,11.2428241 L10.7699147,11.2428241 L8.41791468,7.78682412 C9.10058134,7.43482412 9.62324801,6.96015745 9.98591468,6.36282412 C10.3485813,5.76549078 10.5299147,5.06682412 10.5299147,4.26682412 C10.5299147,3.41349078 10.3219147,2.66682412 9.90591468,2.02682412 C9.48991468,1.38682412 8.89791468,0.896157451 8.12991468,0.554824117 C7.36191468,0.213490784 6.46058134,0.0428241172 5.42591468,0.0428241172 L5.42591468,0.0428241172 L0.0339146783,0.0428241172 L0.0339146783,11.2428241 L3.80991468,11.2428241 Z M5.18591468,5.57882412 L3.80991468,5.57882412 L3.80991468,2.95482412 L5.18591468,2.95482412 C5.69791468,2.95482412 6.08191468,3.06949078 6.33791468,3.29882412 C6.59391468,3.52815745 6.72191468,3.85082412 6.72191468,4.26682412 C6.72191468,4.68282412 6.59391468,5.00549078 6.33791468,5.23482412 C6.08191468,5.46415745 5.69791468,5.57882412 5.18591468,5.57882412 L5.18591468,5.57882412 Z" id="R" fill="#FF8B00" fill-rule="nonzero" transform="translate(5.401915, 5.642824) rotate(-360.000000) translate(-5.401915, -5.642824) "></path>
    </g>
</svg>