<?xml version="1.0" encoding="UTF-8"?>
<svg width="119px" height="14px" viewBox="0 0 119 14" version="1.1" xmlns="http://www.w3.org/2000/svg" xmlns:xlink="http://www.w3.org/1999/xlink">
    <title>RonakLaungani</title>
    <g id="Assets" stroke="none" stroke-width="1" fill="none" fill-rule="evenodd">
        <g id="Artboard" transform="translate(-20.000000, -9.000000)" fill="#FFFFFF" fill-rule="nonzero">
            <path d="M28.106,20.196 C28.5166667,20.196 28.8666667,20.133 29.156,20.007 C29.4453333,19.881 29.716,19.6733333 29.968,19.384 L29.968,19.384 L29.772,19.216 C29.6786667,19.3186667 29.5923333,19.3956667 29.513,19.447 C29.4336667,19.4983333 29.3333333,19.5286667 29.212,19.538 C29.0346667,19.538 28.8993333,19.4633333 28.806,19.314 C28.7126667,19.1646667 28.624,18.9033333 28.54,18.53 L28.54,18.53 L28.218,17.088 C28.0966667,16.5093333 27.833,16.0753333 27.427,15.786 C27.021,15.4966667 26.3933333,15.3146667 25.544,15.24 L25.558,15.241 L25.621,15.23475 C25.8765,15.204125 26.1123125,15.1620156 26.3284375,15.1084219 L26.538,15.051 C27.0793333,14.8876667 27.5063333,14.6683333 27.819,14.393 C28.1316667,14.1176667 28.3533333,13.819 28.484,13.497 C28.6146667,13.175 28.68,12.8553333 28.68,12.538 C28.68,11.7633333 28.358,11.1636667 27.714,10.739 C27.07,10.3143333 26.0993333,10.102 24.802,10.102 C24.6246667,10.102 24.326,10.1066667 23.906,10.116 C23.486,10.1253333 23.052,10.13 22.604,10.13 C22.212,10.13 21.8176667,10.1253333 21.421,10.116 C21.0243333,10.1066667 20.7093333,10.0973333 20.476,10.088 L20.476,10.088 L20.476,10.368 C20.7653333,10.3773333 20.987,10.4123333 21.141,10.473 C21.295,10.5336667 21.3976667,10.6456667 21.449,10.809 C21.5003333,10.9723333 21.526,11.2266667 21.526,11.572 L21.526,11.572 L21.526,18.516 C21.526,18.852 21.5003333,19.104 21.449,19.272 C21.3976667,19.44 21.2973333,19.552 21.148,19.608 C20.9986667,19.664 20.7746667,19.7013333 20.476,19.72 L20.476,19.72 L20.476,20 C20.7093333,19.9813333 21.0243333,19.9696667 21.421,19.965 C21.8176667,19.9603333 22.24,19.958 22.688,19.958 C23.08,19.958 23.4673333,19.9603333 23.85,19.965 C24.2326667,19.9696667 24.55,19.9813333 24.802,20 L24.802,20 L24.802,19.72 C24.5033333,19.7013333 24.2793333,19.664 24.13,19.608 C23.9806667,19.552 23.8803333,19.44 23.829,19.272 C23.7776667,19.104 23.752,18.852 23.752,18.516 L23.752,18.516 L23.752,15.296 L24.662,15.296 C24.9031111,15.296 25.1004722,15.3559537 25.2540833,15.4758611 L25.341,15.555 C25.5043333,15.7276667 25.6326667,15.961 25.726,16.255 C25.8193333,16.549 25.8986667,16.892 25.964,17.284 L25.964,17.284 L26.216,18.684 C26.3186667,19.2626667 26.5333333,19.6593333 26.86,19.874 C27.1866667,20.0886667 27.602,20.196 28.106,20.196 Z M23.752,11.572 C23.752,11.0866667 23.8056667,10.7646667 23.913,10.606 C24.0203333,10.4473333 24.256,10.368 24.62,10.368 C25.2546667,10.368 25.7026667,10.571 25.964,10.977 C26.2253333,11.383 26.356,11.9546667 26.356,12.692 C26.356,13.1213333 26.3023333,13.511 26.195,13.861 C26.0876667,14.211 25.8916667,14.491 25.607,14.701 C25.3223333,14.911 24.9046667,15.016 24.354,15.016 L24.354,15.016 L23.752,15.016 L23.752,11.572 Z M34.636,20.196 C35.3173333,20.196 35.9146667,20.07 36.428,19.818 C36.9413333,19.566 37.3426667,19.1623333 37.632,18.607 C37.9213333,18.0516667 38.066,17.312 38.066,16.388 C38.066,15.464 37.9213333,14.722 37.632,14.162 C37.3426667,13.602 36.9413333,13.196 36.428,12.944 C35.9146667,12.692 35.3173333,12.566 34.636,12.566 C33.9733333,12.566 33.383,12.692 32.865,12.944 C32.347,13.196 31.941,13.602 31.647,14.162 C31.353,14.722 31.206,15.464 31.206,16.388 C31.206,17.312 31.353,18.0516667 31.647,18.607 C31.941,19.1623333 32.347,19.566 32.865,19.818 C33.383,20.07 33.9733333,20.196 34.636,20.196 Z M34.636,19.916 C34.2626667,19.916 33.95,19.6406667 33.698,19.09 C33.446,18.5393333 33.32,17.6386667 33.32,16.388 C33.32,15.1373333 33.446,14.2343333 33.698,13.679 C33.95,13.1236667 34.2626667,12.846 34.636,12.846 C35.0186667,12.846 35.3336667,13.1236667 35.581,13.679 C35.8283333,14.2343333 35.952,15.1373333 35.952,16.388 C35.952,17.6386667 35.8283333,18.5393333 35.581,19.09 C35.3336667,19.6406667 35.0186667,19.916 34.636,19.916 Z M48.012,20 L48.012,19.706 C47.6853333,19.706 47.4543333,19.636 47.319,19.496 C47.1836667,19.356 47.116,19.09 47.116,18.698 L47.116,18.698 L47.116,14.932 C47.116,14.456 47.081,14.078 47.011,13.798 C46.941,13.518 46.8313333,13.2893333 46.682,13.112 C46.542,12.944 46.3483333,12.811 46.101,12.713 C45.8536667,12.615 45.534,12.566 45.142,12.566 C44.6473333,12.566 44.1993333,12.664 43.798,12.86 C43.3966667,13.056 43.0793333,13.392 42.846,13.868 L42.846,13.868 L42.846,12.608 C42.5566667,12.6733333 42.2416667,12.7223333 41.901,12.755 C41.5603333,12.7876667 41.194,12.804 40.802,12.804 C40.522,12.804 40.2326667,12.79 39.934,12.762 L39.934,12.762 L39.934,13.056 C40.2793333,13.056 40.515,13.1563333 40.641,13.357 C40.767,13.5576667 40.83,13.868 40.83,14.288 L40.83,14.288 L40.83,18.698 C40.83,19.09 40.7623333,19.356 40.627,19.496 C40.4916667,19.636 40.2606667,19.706 39.934,19.706 L39.934,19.706 L39.934,20 C40.1206667,19.9906667 40.4006667,19.979 40.774,19.965 C41.1473333,19.951 41.5113333,19.944 41.866,19.944 C42.2113333,19.944 42.545,19.951 42.867,19.965 C43.189,19.979 43.434,19.9906667 43.602,20 L43.602,20 L43.602,19.706 C43.3313333,19.706 43.1376667,19.636 43.021,19.496 C42.9043333,19.356 42.846,19.09 42.846,18.698 L42.846,18.698 L42.846,14.806 C42.846,14.3393333 42.979,13.952 43.245,13.644 C43.511,13.336 43.84,13.182 44.232,13.182 C44.4746667,13.182 44.6566667,13.231 44.778,13.329 C44.8993333,13.427 44.9833333,13.5623333 45.03,13.735 C45.0766667,13.9076667 45.1,14.1106667 45.1,14.344 L45.1,14.344 L45.1,18.698 C45.1,19.09 45.044,19.356 44.932,19.496 C44.82,19.636 44.624,19.706 44.344,19.706 L44.344,19.706 L44.344,20 C44.5213333,19.9906667 44.7803333,19.979 45.121,19.965 C45.4616667,19.951 45.8093333,19.944 46.164,19.944 C46.5093333,19.944 46.8593333,19.951 47.214,19.965 C47.5686667,19.979 47.8346667,19.9906667 48.012,20 L48.012,20 Z M54.836,20.098 C55.1533333,20.098 55.4403333,20.0536667 55.697,19.965 C55.9536667,19.8763333 56.18,19.748 56.376,19.58 L56.376,19.58 L56.236,19.342 C56.1613333,19.4073333 56.082,19.4633333 55.998,19.51 C55.914,19.5566667 55.8253333,19.58 55.732,19.58 C55.62,19.58 55.5406667,19.5333333 55.494,19.44 C55.4473333,19.3466667 55.424,19.188 55.424,18.964 L55.424,18.964 L55.424,15.156 C55.424,14.68 55.3913333,14.2856667 55.326,13.973 C55.2606667,13.6603333 55.1206667,13.3966667 54.906,13.182 C54.6726667,12.9486667 54.3833333,12.7876667 54.038,12.699 C53.6926667,12.6103333 53.3053333,12.566 52.876,12.566 C52.4466667,12.566 52.0476667,12.608 51.679,12.692 C51.3103333,12.776 50.9953333,12.8926667 50.734,13.042 C50.4913333,13.2006667 50.3023333,13.3686667 50.167,13.546 C50.0316667,13.7233333 49.964,13.9473333 49.964,14.218 C49.964,14.5166667 50.0503333,14.771 50.223,14.981 C50.3956667,15.191 50.65,15.296 50.986,15.296 C51.2846667,15.296 51.5436667,15.2026667 51.763,15.016 C51.9823333,14.8293333 52.092,14.5773333 52.092,14.26 C52.092,14.0173333 52.0196667,13.8003333 51.875,13.609 C51.7303333,13.4176667 51.5273333,13.2753333 51.266,13.182 C51.3873333,13.0606667 51.5413333,12.9743333 51.728,12.923 C51.9146667,12.8716667 52.1013333,12.846 52.288,12.846 C52.5493333,12.846 52.7616667,12.8973333 52.925,13 C53.0883333,13.1026667 53.2096667,13.2496667 53.289,13.441 C53.3683333,13.6323333 53.408,13.8493333 53.408,14.092 L53.408,14.092 L53.408,15.184 C53.408,15.3986667 53.317,15.576 53.135,15.716 C52.953,15.856 52.715,15.9796667 52.421,16.087 C52.127,16.1943333 51.819,16.3016667 51.497,16.409 C51.175,16.5163333 50.8693333,16.6516667 50.58,16.815 C50.2906667,16.9783333 50.055,17.186 49.873,17.438 C49.691,17.69 49.6,18.0166667 49.6,18.418 C49.6,18.8846667 49.74,19.2813333 50.02,19.608 C50.3,19.9346667 50.7526667,20.098 51.378,20.098 C51.8353333,20.098 52.2343333,20.0046667 52.575,19.818 C52.9156667,19.6313333 53.2026667,19.3466667 53.436,18.964 C53.4453333,19.2626667 53.541,19.5263333 53.723,19.755 C53.905,19.9836667 54.276,20.098 54.836,20.098 Z M52.456,19.202 C52.2133333,19.202 52.008,19.1156667 51.84,18.943 C51.672,18.7703333 51.588,18.4833333 51.588,18.082 C51.588,17.7086667 51.658,17.41 51.798,17.186 C51.938,16.962 52.113,16.7776667 52.323,16.633 C52.533,16.4883333 52.7383333,16.353 52.939,16.227 C53.1396667,16.101 53.296,15.9446667 53.408,15.758 L53.408,15.758 L53.408,18.628 C53.2586667,18.8426667 53.107,18.992 52.953,19.076 C52.799,19.16 52.6333333,19.202 52.456,19.202 Z M65.622,20 L65.622,19.706 C65.4633333,19.65 65.328,19.5566667 65.216,19.426 C65.104,19.2953333 64.9966667,19.146 64.894,18.978 L64.894,18.978 L62.544,15.048 L63.438,14.12 C63.662,13.903 63.883375,13.714875 64.102125,13.555625 L64.32,13.406 C64.6093333,13.2193333 64.8986667,13.098 65.188,13.042 L65.188,13.042 L65.188,12.762 C65.076,12.7713333 64.9266667,12.7783333 64.74,12.783 C64.5533333,12.7876667 64.355,12.7923333 64.145,12.797 C63.935,12.8016667 63.7366667,12.804 63.55,12.804 L63.38025,12.803125 C63.20175,12.801375 62.997,12.797 62.766,12.79 C62.458,12.7806667 62.1733333,12.7713333 61.912,12.762 L61.912,12.762 L61.912,13.042 C62.2386667,13.0513333 62.5023333,13.126 62.703,13.266 C62.9036667,13.406 63.004,13.5926667 63.004,13.826 C63.004,14.0593333 62.8453333,14.3253333 62.528,14.624 L62.528,14.624 L61.464,15.66 C61.3426667,15.7906667 61.2096667,15.8793333 61.065,15.926 C60.9203333,15.9726667 60.75,16.0053333 60.554,16.024 L60.623,16.015 L60.624,9.038 C60.407,9.087 60.17425,9.1268125 59.92575,9.1574375 L59.672,9.185 C59.3266667,9.21766667 58.9626667,9.234 58.58,9.234 C58.3,9.234 58.0106667,9.22 57.712,9.192 L57.712,9.192 L57.712,9.486 C58.0573333,9.486 58.293,9.58633333 58.419,9.787 C58.545,9.98766667 58.608,10.298 58.608,10.718 L58.608,10.718 L58.608,18.698 C58.608,19.09 58.5403333,19.356 58.405,19.496 C58.2696667,19.636 58.0386667,19.706 57.712,19.706 L57.712,19.706 L57.712,20 C57.8986667,19.9906667 58.1763333,19.979 58.545,19.965 C58.9136667,19.951 59.28,19.944 59.644,19.944 C59.9986667,19.944 60.3463333,19.951 60.687,19.965 C61.0276667,19.979 61.2866667,19.9906667 61.464,20 L61.464,20 L61.464,19.706 C61.156,19.706 60.939,19.636 60.813,19.496 C60.687,19.356 60.624,19.09 60.624,18.698 L60.624,18.698 L60.623,16.296 L60.6804375,16.3009375 C60.7603542,16.3108542 60.8315208,16.3260208 60.8939375,16.3464375 L60.981,16.381 C61.0883333,16.4323333 61.198,16.5466667 61.31,16.724 L61.31,16.724 L62.696,19.23 C62.78,19.37 62.7893333,19.4843333 62.724,19.573 C62.6586667,19.6616667 62.5326667,19.706 62.346,19.706 L62.346,19.706 L62.346,20 C62.514,19.9906667 62.7706667,19.979 63.116,19.965 C63.4613333,19.951 63.8066667,19.944 64.152,19.944 C64.432,19.944 64.712,19.951 64.992,19.965 C65.272,19.979 65.482,19.9906667 65.622,20 L65.622,20 Z M79.074,20 C79.0273333,19.5613333 78.9993333,19.1366667 78.99,18.726 C78.9806667,18.3153333 78.976,18.0026667 78.976,17.788 C78.976,17.284 78.99,16.8733333 79.018,16.556 L79.018,16.556 L78.696,16.556 C78.6026667,17.172 78.437,17.7156667 78.199,18.187 C77.961,18.6583333 77.667,19.0246667 77.317,19.286 C76.967,19.5473333 76.5773333,19.678 76.148,19.678 L76.148,19.678 L75.462,19.678 C75.21,19.678 75.021,19.6546667 74.895,19.608 C74.769,19.5613333 74.685,19.468 74.643,19.328 C74.601,19.188 74.58,18.9733333 74.58,18.684 L74.58,18.684 L74.58,11.572 C74.58,11.2266667 74.608,10.9723333 74.664,10.809 C74.72,10.6456667 74.8296667,10.5336667 74.993,10.473 C75.1563333,10.4123333 75.3966667,10.3773333 75.714,10.368 L75.714,10.368 L75.714,10.088 C75.4526667,10.0973333 75.1236667,10.1066667 74.727,10.116 C74.3303333,10.1253333 73.9266667,10.13 73.516,10.13 C73.068,10.13 72.6456667,10.1253333 72.249,10.116 C71.8523333,10.1066667 71.5373333,10.0973333 71.304,10.088 L71.304,10.088 L71.304,10.368 C71.5933333,10.3773333 71.815,10.4123333 71.969,10.473 C72.123,10.5336667 72.2256667,10.6456667 72.277,10.809 C72.3283333,10.9723333 72.354,11.2266667 72.354,11.572 L72.354,11.572 L72.354,18.516 C72.354,18.852 72.3283333,19.104 72.277,19.272 C72.2256667,19.44 72.1253333,19.552 71.976,19.608 C71.8266667,19.664 71.6026667,19.7013333 71.304,19.72 L71.304,19.72 L71.304,20 C71.808,19.9813333 72.354,19.9696667 72.942,19.965 C73.53,19.9603333 74.0853333,19.958 74.608,19.958 L74.608,19.958 L75.868,19.958 C76.3346667,19.958 76.8666667,19.9603333 77.464,19.965 C78.0613333,19.9696667 78.598,19.9813333 79.074,20 Z M86.024,20.098 C86.3413333,20.098 86.6283333,20.0536667 86.885,19.965 C87.1416667,19.8763333 87.368,19.748 87.564,19.58 L87.564,19.58 L87.424,19.342 C87.3493333,19.4073333 87.27,19.4633333 87.186,19.51 C87.102,19.5566667 87.0133333,19.58 86.92,19.58 C86.808,19.58 86.7286667,19.5333333 86.682,19.44 C86.6353333,19.3466667 86.612,19.188 86.612,18.964 L86.612,18.964 L86.612,15.156 C86.612,14.68 86.5793333,14.2856667 86.514,13.973 C86.4486667,13.6603333 86.3086667,13.3966667 86.094,13.182 C85.8606667,12.9486667 85.5713333,12.7876667 85.226,12.699 C84.8806667,12.6103333 84.4933333,12.566 84.064,12.566 C83.6346667,12.566 83.2356667,12.608 82.867,12.692 C82.4983333,12.776 82.1833333,12.8926667 81.922,13.042 C81.6793333,13.2006667 81.4903333,13.3686667 81.355,13.546 C81.2196667,13.7233333 81.152,13.9473333 81.152,14.218 C81.152,14.5166667 81.2383333,14.771 81.411,14.981 C81.5836667,15.191 81.838,15.296 82.174,15.296 C82.4726667,15.296 82.7316667,15.2026667 82.951,15.016 C83.1703333,14.8293333 83.28,14.5773333 83.28,14.26 C83.28,14.0173333 83.2076667,13.8003333 83.063,13.609 C82.9183333,13.4176667 82.7153333,13.2753333 82.454,13.182 C82.5753333,13.0606667 82.7293333,12.9743333 82.916,12.923 C83.1026667,12.8716667 83.2893333,12.846 83.476,12.846 C83.7373333,12.846 83.9496667,12.8973333 84.113,13 C84.2763333,13.1026667 84.3976667,13.2496667 84.477,13.441 C84.5563333,13.6323333 84.596,13.8493333 84.596,14.092 L84.596,14.092 L84.596,15.184 C84.596,15.3986667 84.505,15.576 84.323,15.716 C84.141,15.856 83.903,15.9796667 83.609,16.087 C83.315,16.1943333 83.007,16.3016667 82.685,16.409 C82.363,16.5163333 82.0573333,16.6516667 81.768,16.815 C81.4786667,16.9783333 81.243,17.186 81.061,17.438 C80.879,17.69 80.788,18.0166667 80.788,18.418 C80.788,18.8846667 80.928,19.2813333 81.208,19.608 C81.488,19.9346667 81.9406667,20.098 82.566,20.098 C83.0233333,20.098 83.4223333,20.0046667 83.763,19.818 C84.1036667,19.6313333 84.3906667,19.3466667 84.624,18.964 C84.6333333,19.2626667 84.729,19.5263333 84.911,19.755 C85.093,19.9836667 85.464,20.098 86.024,20.098 Z M83.644,19.202 C83.4013333,19.202 83.196,19.1156667 83.028,18.943 C82.86,18.7703333 82.776,18.4833333 82.776,18.082 C82.776,17.7086667 82.846,17.41 82.986,17.186 C83.126,16.962 83.301,16.7776667 83.511,16.633 C83.721,16.4883333 83.9263333,16.353 84.127,16.227 C84.3276667,16.101 84.484,15.9446667 84.596,15.758 L84.596,15.758 L84.596,18.628 C84.4466667,18.8426667 84.295,18.992 84.141,19.076 C83.987,19.16 83.8213333,19.202 83.644,19.202 Z M91.672,20.196 C92.1573333,20.196 92.5983333,20.0956667 92.995,19.895 C93.3916667,19.6943333 93.702,19.3606667 93.926,18.894 L93.926,18.894 L93.926,20.154 C94.2246667,20.0793333 94.542,20.028 94.878,20 C95.214,19.972 95.578,19.958 95.97,19.958 C96.2593333,19.958 96.5486667,19.972 96.838,20 L96.838,20 L96.838,19.706 C96.502,19.706 96.2686667,19.6056667 96.138,19.405 C96.0073333,19.2043333 95.942,18.894 95.942,18.474 L95.942,18.474 L95.942,12.608 C95.6526667,12.6733333 95.3376667,12.7223333 94.997,12.755 C94.6563333,12.7876667 94.29,12.804 93.898,12.804 C93.618,12.804 93.3286667,12.79 93.03,12.762 L93.03,12.762 L93.03,13.056 C93.3753333,13.056 93.611,13.1563333 93.737,13.357 C93.863,13.5576667 93.926,13.868 93.926,14.288 L93.926,14.288 L93.926,17.956 C93.926,18.4133333 93.793,18.7983333 93.527,19.111 C93.261,19.4236667 92.9413333,19.58 92.568,19.58 C92.3346667,19.58 92.1573333,19.531 92.036,19.433 C91.9146667,19.335 91.833,19.1973333 91.791,19.02 C91.749,18.8426667 91.728,18.6373333 91.728,18.404 L91.728,18.404 L91.728,12.608 C91.4386667,12.6733333 91.1236667,12.7223333 90.783,12.755 C90.4423333,12.7876667 90.076,12.804 89.684,12.804 C89.404,12.804 89.1146667,12.79 88.816,12.762 L88.816,12.762 L88.816,13.056 C89.1613333,13.056 89.397,13.1563333 89.523,13.357 C89.649,13.5576667 89.712,13.868 89.712,14.288 L89.712,14.288 L89.712,17.83 C89.712,18.2873333 89.7446667,18.6606667 89.81,18.95 C89.8753333,19.2393333 89.9873333,19.4726667 90.146,19.65 C90.286,19.8086667 90.4773333,19.9393333 90.72,20.042 C90.9626667,20.1446667 91.28,20.196 91.672,20.196 Z M106.532,20 L106.532,19.706 C106.205333,19.706 105.974333,19.636 105.839,19.496 C105.703667,19.356 105.636,19.09 105.636,18.698 L105.636,18.698 L105.636,14.932 C105.636,14.456 105.601,14.078 105.531,13.798 C105.461,13.518 105.351333,13.2893333 105.202,13.112 C105.062,12.944 104.868333,12.811 104.621,12.713 C104.373667,12.615 104.054,12.566 103.662,12.566 C103.167333,12.566 102.719333,12.664 102.318,12.86 C101.916667,13.056 101.599333,13.392 101.366,13.868 L101.366,13.868 L101.366,12.608 C101.076667,12.6733333 100.761667,12.7223333 100.421,12.755 C100.080333,12.7876667 99.714,12.804 99.322,12.804 C99.042,12.804 98.7526667,12.79 98.454,12.762 L98.454,12.762 L98.454,13.056 C98.7993333,13.056 99.035,13.1563333 99.161,13.357 C99.287,13.5576667 99.35,13.868 99.35,14.288 L99.35,14.288 L99.35,18.698 C99.35,19.09 99.2823333,19.356 99.147,19.496 C99.0116667,19.636 98.7806667,19.706 98.454,19.706 L98.454,19.706 L98.454,20 C98.6406667,19.9906667 98.9206667,19.979 99.294,19.965 C99.6673333,19.951 100.031333,19.944 100.386,19.944 C100.731333,19.944 101.065,19.951 101.387,19.965 C101.709,19.979 101.954,19.9906667 102.122,20 L102.122,20 L102.122,19.706 C101.851333,19.706 101.657667,19.636 101.541,19.496 C101.424333,19.356 101.366,19.09 101.366,18.698 L101.366,18.698 L101.366,14.806 C101.366,14.3393333 101.499,13.952 101.765,13.644 C102.031,13.336 102.36,13.182 102.752,13.182 C102.994667,13.182 103.176667,13.231 103.298,13.329 C103.419333,13.427 103.503333,13.5623333 103.55,13.735 C103.596667,13.9076667 103.62,14.1106667 103.62,14.344 L103.62,14.344 L103.62,18.698 C103.62,19.09 103.564,19.356 103.452,19.496 C103.34,19.636 103.144,19.706 102.864,19.706 L102.864,19.706 L102.864,20 C103.041333,19.9906667 103.300333,19.979 103.641,19.965 C103.981667,19.951 104.329333,19.944 104.684,19.944 C105.029333,19.944 105.379333,19.951 105.734,19.965 C106.088667,19.979 106.354667,19.9906667 106.532,20 L106.532,20 Z M110.668,22.632 C111.601333,22.632 112.371333,22.513 112.978,22.275 C113.584667,22.037 114.035,21.722 114.329,21.33 C114.623,20.938 114.77,20.5133333 114.77,20.056 C114.77,19.3933333 114.513333,18.9196667 114,18.635 C113.486667,18.3503333 112.842667,18.208 112.068,18.208 L112.068,18.208 L110.542,18.208 C110.168667,18.208 109.982,18.0586667 109.982,17.76 C109.982,17.564 110.059,17.403 110.213,17.277 C110.367,17.151 110.532667,17.032 110.71,16.92 L110.57,17.013 L110.808,17.018 C111.521481,17.018 112.126189,16.8760412 112.622123,16.5921235 L112.803,16.479 C113.330333,16.1196667 113.594,15.5573333 113.594,14.792 C113.594,14.2755556 113.476815,13.8524444 113.242444,13.5226667 L113.172,13.433 L113.2524,13.3122 C113.284133,13.2683333 113.3168,13.2268 113.3504,13.1876 L113.454,13.077 C113.631333,12.9043333 113.897333,12.7526667 114.252,12.622 L114.084,12.689 C113.977333,12.9357619 113.920667,13.1477143 113.914,13.3248571 L113.916,13.427 C113.934667,13.6556667 114.011667,13.826 114.147,13.938 C114.282333,14.05 114.429333,14.106 114.588,14.106 C114.774667,14.106 114.942667,14.0383333 115.092,13.903 C115.241333,13.7676667 115.316,13.56 115.316,13.28 C115.316,13.0186667 115.239,12.8063333 115.085,12.643 C114.931,12.4796667 114.704667,12.398 114.406,12.398 C114.042,12.398 113.703667,12.5193333 113.391,12.762 C113.234667,12.8833333 113.099917,13.0198333 112.98675,13.1715 L112.956,13.216 L112.92934,13.1910417 L112.92934,13.1910417 L112.803,13.098 C112.275667,12.7433333 111.610667,12.566 110.808,12.566 C110.014667,12.566 109.352,12.7433333 108.82,13.098 C108.288,13.4526667 108.022,14.0173333 108.022,14.792 C108.022,15.5573333 108.288,16.1196667 108.82,16.479 C109.174667,16.7185556 109.587407,16.8782593 110.058222,16.9581111 L110.204,16.979 L110.086571,17.0365714 C109.788667,17.192 109.539524,17.3535238 109.339143,17.5211429 L109.198,17.648 C108.89,17.9466667 108.736,18.292 108.736,18.684 C108.736,18.964 108.815333,19.195 108.974,19.377 C109.132667,19.559 109.354333,19.692 109.639,19.776 C109.923667,19.86 110.257333,19.902 110.64,19.902 L110.64,19.902 L111.508,19.902 C112.124,19.902 112.534667,19.9976667 112.74,20.189 C112.945333,20.3803333 113.048,20.616 113.048,20.896 C113.048,21.2226667 112.952333,21.498 112.761,21.722 C112.569667,21.946 112.308333,22.114 111.977,22.226 C111.645667,22.338 111.27,22.394 110.85,22.394 C110.234,22.394 109.746333,22.289 109.387,22.079 C109.027667,21.869 108.848,21.568 108.848,21.176 C108.848,20.9986667 108.887667,20.8283333 108.967,20.665 C109.046333,20.5016667 109.174667,20.35 109.352,20.21 L109.352,20.21 L109.226,19.986 C108.712667,20.1166667 108.325333,20.2963333 108.064,20.525 C107.802667,20.7536667 107.672,21.0126667 107.672,21.302 C107.672,21.5913333 107.800333,21.8363333 108.057,22.037 C108.313667,22.2376667 108.668333,22.387 109.121,22.485 C109.573667,22.583 110.089333,22.632 110.668,22.632 Z M110.808,16.766 C110.565333,16.766 110.371667,16.6236667 110.227,16.339 C110.082333,16.0543333 110.01,15.5386667 110.01,14.792 C110.01,14.0453333 110.082333,13.5296667 110.227,13.245 C110.371667,12.9603333 110.565333,12.818 110.808,12.818 C111.06,12.818 111.256,12.9603333 111.396,13.245 C111.536,13.5296667 111.606,14.0453333 111.606,14.792 C111.606,15.5386667 111.536,16.0543333 111.396,16.339 C111.256,16.6236667 111.06,16.766 110.808,16.766 Z M121.86,20.098 C122.177333,20.098 122.464333,20.0536667 122.721,19.965 C122.977667,19.8763333 123.204,19.748 123.4,19.58 L123.4,19.58 L123.26,19.342 C123.185333,19.4073333 123.106,19.4633333 123.022,19.51 C122.938,19.5566667 122.849333,19.58 122.756,19.58 C122.644,19.58 122.564667,19.5333333 122.518,19.44 C122.471333,19.3466667 122.448,19.188 122.448,18.964 L122.448,18.964 L122.448,15.156 C122.448,14.68 122.415333,14.2856667 122.35,13.973 C122.284667,13.6603333 122.144667,13.3966667 121.93,13.182 C121.696667,12.9486667 121.407333,12.7876667 121.062,12.699 C120.716667,12.6103333 120.329333,12.566 119.9,12.566 C119.470667,12.566 119.071667,12.608 118.703,12.692 C118.334333,12.776 118.019333,12.8926667 117.758,13.042 C117.515333,13.2006667 117.326333,13.3686667 117.191,13.546 C117.055667,13.7233333 116.988,13.9473333 116.988,14.218 C116.988,14.5166667 117.074333,14.771 117.247,14.981 C117.419667,15.191 117.674,15.296 118.01,15.296 C118.308667,15.296 118.567667,15.2026667 118.787,15.016 C119.006333,14.8293333 119.116,14.5773333 119.116,14.26 C119.116,14.0173333 119.043667,13.8003333 118.899,13.609 C118.754333,13.4176667 118.551333,13.2753333 118.29,13.182 C118.411333,13.0606667 118.565333,12.9743333 118.752,12.923 C118.938667,12.8716667 119.125333,12.846 119.312,12.846 C119.573333,12.846 119.785667,12.8973333 119.949,13 C120.112333,13.1026667 120.233667,13.2496667 120.313,13.441 C120.392333,13.6323333 120.432,13.8493333 120.432,14.092 L120.432,14.092 L120.432,15.184 C120.432,15.3986667 120.341,15.576 120.159,15.716 C119.977,15.856 119.739,15.9796667 119.445,16.087 C119.151,16.1943333 118.843,16.3016667 118.521,16.409 C118.199,16.5163333 117.893333,16.6516667 117.604,16.815 C117.314667,16.9783333 117.079,17.186 116.897,17.438 C116.715,17.69 116.624,18.0166667 116.624,18.418 C116.624,18.8846667 116.764,19.2813333 117.044,19.608 C117.324,19.9346667 117.776667,20.098 118.402,20.098 C118.859333,20.098 119.258333,20.0046667 119.599,19.818 C119.939667,19.6313333 120.226667,19.3466667 120.46,18.964 C120.469333,19.2626667 120.565,19.5263333 120.747,19.755 C120.929,19.9836667 121.3,20.098 121.86,20.098 Z M119.48,19.202 C119.237333,19.202 119.032,19.1156667 118.864,18.943 C118.696,18.7703333 118.612,18.4833333 118.612,18.082 C118.612,17.7086667 118.682,17.41 118.822,17.186 C118.962,16.962 119.137,16.7776667 119.347,16.633 C119.557,16.4883333 119.762333,16.353 119.963,16.227 C120.163667,16.101 120.32,15.9446667 120.432,15.758 L120.432,15.758 L120.432,18.628 C120.282667,18.8426667 120.131,18.992 119.977,19.076 C119.823,19.16 119.657333,19.202 119.48,19.202 Z M132.884,20 L132.884,19.706 C132.557333,19.706 132.326333,19.636 132.191,19.496 C132.055667,19.356 131.988,19.09 131.988,18.698 L131.988,18.698 L131.988,14.932 C131.988,14.456 131.953,14.078 131.883,13.798 C131.813,13.518 131.703333,13.2893333 131.554,13.112 C131.414,12.944 131.220333,12.811 130.973,12.713 C130.725667,12.615 130.406,12.566 130.014,12.566 C129.519333,12.566 129.071333,12.664 128.67,12.86 C128.268667,13.056 127.951333,13.392 127.718,13.868 L127.718,13.868 L127.718,12.608 C127.428667,12.6733333 127.113667,12.7223333 126.773,12.755 C126.432333,12.7876667 126.066,12.804 125.674,12.804 C125.394,12.804 125.104667,12.79 124.806,12.762 L124.806,12.762 L124.806,13.056 C125.151333,13.056 125.387,13.1563333 125.513,13.357 C125.639,13.5576667 125.702,13.868 125.702,14.288 L125.702,14.288 L125.702,18.698 C125.702,19.09 125.634333,19.356 125.499,19.496 C125.363667,19.636 125.132667,19.706 124.806,19.706 L124.806,19.706 L124.806,20 C124.992667,19.9906667 125.272667,19.979 125.646,19.965 C126.019333,19.951 126.383333,19.944 126.738,19.944 C127.083333,19.944 127.417,19.951 127.739,19.965 C128.061,19.979 128.306,19.9906667 128.474,20 L128.474,20 L128.474,19.706 C128.203333,19.706 128.009667,19.636 127.893,19.496 C127.776333,19.356 127.718,19.09 127.718,18.698 L127.718,18.698 L127.718,14.806 C127.718,14.3393333 127.851,13.952 128.117,13.644 C128.383,13.336 128.712,13.182 129.104,13.182 C129.346667,13.182 129.528667,13.231 129.65,13.329 C129.771333,13.427 129.855333,13.5623333 129.902,13.735 C129.948667,13.9076667 129.972,14.1106667 129.972,14.344 L129.972,14.344 L129.972,18.698 C129.972,19.09 129.916,19.356 129.804,19.496 C129.692,19.636 129.496,19.706 129.216,19.706 L129.216,19.706 L129.216,20 C129.393333,19.9906667 129.652333,19.979 129.993,19.965 C130.333667,19.951 130.681333,19.944 131.036,19.944 C131.381333,19.944 131.731333,19.951 132.086,19.965 C132.440667,19.979 132.706667,19.9906667 132.884,20 L132.884,20 Z M136.222,11.306 C136.614,11.306 136.924333,11.2103333 137.153,11.019 C137.381667,10.8276667 137.496,10.564 137.496,10.228 C137.496,9.892 137.381667,9.62833333 137.153,9.437 C136.924333,9.24566667 136.614,9.15 136.222,9.15 C135.83,9.15 135.519667,9.24566667 135.291,9.437 C135.062333,9.62833333 134.948,9.892 134.948,10.228 C134.948,10.564 135.062333,10.8276667 135.291,11.019 C135.519667,11.2103333 135.83,11.306 136.222,11.306 Z M138.21,20 L138.21,19.706 C137.883333,19.706 137.652333,19.636 137.517,19.496 C137.381667,19.356 137.314,19.09 137.314,18.698 L137.314,18.698 L137.314,12.608 C137.024667,12.6733333 136.709667,12.7223333 136.369,12.755 C136.028333,12.7876667 135.662,12.804 135.27,12.804 C134.99,12.804 134.700667,12.79 134.402,12.762 L134.402,12.762 L134.402,13.056 C134.747333,13.056 134.983,13.1563333 135.109,13.357 C135.235,13.5576667 135.298,13.868 135.298,14.288 L135.298,14.288 L135.298,18.698 C135.298,19.09 135.230333,19.356 135.095,19.496 C134.959667,19.636 134.728667,19.706 134.402,19.706 L134.402,19.706 L134.402,20 C134.588667,19.9906667 134.868667,19.979 135.242,19.965 C135.615333,19.951 135.984,19.944 136.348,19.944 C136.712,19.944 137.071333,19.951 137.426,19.965 C137.780667,19.979 138.042,19.9906667 138.21,20 L138.21,20 Z" id="RonakLaungani"></path>
        </g>
    </g>
</svg>